<svg width="525" height="527" viewBox="0 0 525 527" fill="none" xmlns="http://www.w3.org/2000/svg">
<path d="M262.422 526.739L262.457 437.193C253.434 437.193 244.342 436.473 235.441 435.051L221.55 523.508C235.023 525.65 248.775 526.739 262.439 526.739H262.422ZM303.294 523.543C316.801 521.401 330.222 518.188 343.206 513.957L315.806 428.765C307.255 431.557 298.39 433.681 289.472 435.086L303.294 523.543ZM181.62 513.904L209.089 428.73C200.521 425.938 192.126 422.427 184.116 418.318L143.663 498.084C155.827 504.335 168.601 509.655 181.62 513.904ZM381.146 498.189C393.327 491.956 405.107 484.687 416.171 476.593L363.799 404.184C356.521 409.521 348.773 414.297 340.762 418.388L381.146 498.189ZM108.655 476.453L161.08 404.078C153.837 398.776 146.927 392.806 140.504 386.362L77.5211 449.642L77.5735 449.694C87.2417 459.421 97.6953 468.429 108.655 476.453ZM446.886 450.238L447.427 449.677C457.06 439.985 465.996 429.485 473.989 418.476L402.07 365.714C396.8 372.983 390.884 379.936 384.496 386.38L383.606 387.293L413.868 416.035L446.886 450.238ZM50.8899 418.3L122.843 365.591C117.538 358.269 112.791 350.474 108.707 342.415L29.4069 383.061C35.6022 395.299 42.8272 407.151 50.8899 418.283V418.3ZM495.507 383.237C501.719 370.999 507.007 358.147 511.248 345.048L426.59 317.394C423.815 326.015 420.325 334.461 416.241 342.52L495.507 383.237ZM13.7178 344.855L98.3934 317.271C95.6186 308.668 93.5069 299.749 92.0933 290.776L4.17168 304.717C6.30078 318.307 9.5119 331.81 13.7178 344.873V344.855ZM520.811 304.911C522.941 291.356 524.023 277.52 524.04 263.79L435.036 263.737C435.036 272.814 434.321 281.962 432.907 290.934L520.811 304.911ZM89.9817 263.597C89.9817 254.519 90.6972 245.354 92.0933 236.399L4.17168 222.458C2.04257 236.013 0.978026 249.849 0.960574 263.579H89.9642L89.9817 263.597ZM432.942 236.54L520.864 222.651C518.752 209.061 515.541 195.559 511.353 182.496L426.66 210.027C429.434 218.648 431.546 227.55 432.942 236.522V236.54ZM98.3934 209.922C101.168 201.301 104.659 192.838 108.725 184.778L29.4243 144.114C23.2289 156.352 17.9411 169.204 13.7178 182.303L98.3759 209.922H98.3934ZM416.346 184.901L495.681 144.307C489.486 132.052 482.261 120.2 474.215 109.068L402.227 161.742C407.515 169.064 412.262 176.86 416.346 184.919V184.901ZM122.878 161.602C128.166 154.298 134.1 147.31 140.522 140.866L140.696 140.69L77.7655 77.3759L77.5909 77.5515C67.9227 87.2787 58.9526 97.831 50.9422 108.875L122.878 161.602ZM384.81 141.182L403.815 121.675L447.567 77.6744L447.427 77.5339C437.811 67.8595 427.393 58.8873 416.468 50.8633L364.008 123.202C371.233 128.505 378.126 134.44 384.496 140.866L384.81 141.182V141.182ZM161.289 123.009C168.567 117.689 176.315 112.913 184.325 108.822L143.995 29.0035C131.813 35.2366 120.033 42.4881 108.969 50.5824L161.289 123.009ZM340.989 108.963L381.495 29.2318C369.331 22.9811 356.574 17.6435 343.555 13.3944L316.033 98.5509C324.602 101.36 332.996 104.854 341.007 108.98L340.989 108.963ZM209.316 98.4456C217.885 95.6714 226.751 93.5469 235.651 92.1422L221.882 3.66726C208.391 5.79179 194.954 9.00491 181.97 13.2364L209.316 98.4456V98.4456ZM289.699 92.1949L303.625 3.7375C290.153 1.59541 276.401 0.489258 262.753 0.489258L262.666 90.0353C271.689 90.0353 280.781 90.7727 289.699 92.1949V92.1949Z" fill="black"/>
<path d="M262.474 441.144V351.147C254.956 351.147 247.455 350.159 240.202 348.235L216.977 435.18C231.801 439.132 247.102 441.144 262.474 441.144ZM307.971 435.18C322.849 431.209 337.162 425.298 350.468 417.604L305.43 339.677C298.953 343.418 292 346.294 284.764 348.217L307.971 435.18ZM174.462 417.586L219.518 339.677C213.059 335.935 207.076 331.33 201.711 325.983L200.881 325.171L172.45 355.1L137.559 389.105L138.071 389.599C148.978 400.504 161.226 409.91 174.479 417.586H174.462ZM386.877 389.634H386.895C397.784 378.711 407.19 366.482 414.85 353.247L336.95 308.177C333.208 314.636 328.602 320.618 323.255 325.965L386.877 389.634ZM109.992 353.053L187.963 308.089C184.221 301.613 181.362 294.66 179.439 287.407L92.45 310.542C96.4033 325.418 102.315 339.729 109.992 353.053ZM432.463 310.771C436.416 295.948 438.428 280.649 438.445 265.279L348.439 265.243C348.439 272.778 347.451 280.278 345.509 287.531L432.463 310.771V310.771ZM176.544 265.138C176.544 257.602 177.533 250.103 179.492 242.85L92.5559 219.556C88.5851 234.38 86.5555 249.679 86.5555 265.049L176.562 265.138H176.544ZM345.527 242.956L432.498 219.786C428.527 204.91 422.615 190.599 414.938 177.293L336.985 222.292C340.727 228.768 343.603 235.721 345.527 242.956ZM188.051 222.186C191.739 215.815 196.293 209.904 201.552 204.61L201.781 204.38L169.591 172.193L138.636 140.271L138.071 140.818C127.2 151.688 117.811 163.882 110.169 177.081L188.051 222.186V222.186ZM169.591 172.176L169.961 172.546L169.591 172.176ZM323.308 204.486L355.181 172.617L387.706 141.629L386.895 140.8C376.023 129.93 363.793 120.524 350.574 112.865L305.483 190.757C311.854 194.445 317.784 198.998 323.078 204.257L323.308 204.486V204.486ZM219.571 190.704C226.03 186.963 232.984 184.105 240.237 182.163L217.082 95.2013C202.187 99.1718 187.892 105.066 174.568 112.76L219.571 190.704ZM284.817 182.199L308.095 95.2542C293.27 91.2837 277.969 89.272 262.597 89.2544L262.545 179.252C270.08 179.252 277.581 180.24 284.834 182.181L284.817 182.199Z" fill="black"/>
</svg>
