<svg width="644" height="166" viewBox="0 0 644 166" fill="none" xmlns="http://www.w3.org/2000/svg">
<path d="M82.9752 166L82.9862 137.754C80.1402 137.754 77.2721 137.527 74.4646 137.078L70.0826 164.981C74.3324 165.657 78.6704 166 82.9807 166H82.9752ZM95.8678 164.992C100.129 164.316 104.362 163.303 108.458 161.968L99.8149 135.095C97.1175 135.976 94.3209 136.646 91.5079 137.089L95.8678 164.992ZM57.4873 161.951L66.1521 135.084C63.4492 134.203 60.8013 133.096 58.2745 131.8L45.514 156.961C49.351 158.933 53.3806 160.611 57.4873 161.951ZM120.425 156.994C124.268 155.028 127.984 152.735 131.474 150.182L114.954 127.341C112.658 129.025 110.214 130.531 107.687 131.822L120.425 156.994ZM34.4711 150.138L51.008 127.308C48.7234 125.635 46.5434 123.752 44.5176 121.72L24.6502 141.68L24.6667 141.697C27.7165 144.765 31.014 147.607 34.4711 150.138ZM141.163 141.869L141.333 141.692C144.372 138.634 147.191 135.322 149.712 131.85L127.026 115.206C125.363 117.499 123.497 119.693 121.482 121.725L121.202 122.013L130.747 131.08L141.163 141.869ZM16.2497 131.794L38.9466 115.168C37.2731 112.858 35.7757 110.399 34.4876 107.857L9.47308 120.678C11.4273 124.539 13.7064 128.277 16.2497 131.789V131.794ZM156.499 120.734C158.459 116.873 160.127 112.819 161.465 108.688L134.76 99.9644C133.885 102.684 132.784 105.348 131.496 107.89L156.499 120.734ZM4.52411 108.627L31.2342 99.9257C30.3589 97.2118 29.6928 94.3982 29.2469 91.5681L1.5129 95.9656C2.18451 100.252 3.19742 104.512 4.52411 108.632V108.627ZM164.482 96.0266C165.153 91.7508 165.494 87.3865 165.5 83.0554L137.425 83.0388C137.425 85.9022 137.199 88.7877 136.753 91.6179L164.482 96.0266ZM28.5808 82.9945C28.5808 80.1311 28.8065 77.24 29.2469 74.4153L1.5129 70.0177C0.841299 74.2935 0.505499 78.6578 0.499994 82.9889H28.5753L28.5808 82.9945ZM136.764 74.4596L164.498 70.0787C163.832 65.7919 162.819 61.5328 161.498 57.4121L134.782 66.0965C135.658 68.8159 136.324 71.6239 136.764 74.4541V74.4596ZM31.2342 66.0633C32.1095 63.3439 33.2104 60.6743 34.4931 58.1321L9.47857 45.305C7.52431 49.1653 5.85631 53.2195 4.52411 57.3512L31.2287 66.0633H31.2342ZM131.529 58.1709L156.554 45.3659C154.6 41.5 152.321 37.7615 149.783 34.2501L127.075 50.8656C128.743 53.1752 130.241 55.6343 131.529 58.1764V58.1709ZM38.9576 50.8213C40.6256 48.5173 42.4973 46.313 44.5231 44.2803L44.5782 44.2249L24.7273 24.2531L24.6723 24.3085C21.6225 27.3768 18.793 30.7055 16.2662 34.1892L38.9576 50.8213ZM121.581 44.38L127.576 38.2267L141.377 24.3473L141.333 24.3029C138.3 21.2512 135.014 18.4211 131.567 15.89L115.02 38.7086C117.299 40.3812 119.473 42.2532 121.482 44.2803L121.581 44.38V44.38ZM51.074 38.6477C53.3696 36.9695 55.8138 35.463 58.3406 34.1726L45.6186 8.99453C41.7761 10.9607 38.0603 13.2481 34.5702 15.8013L51.074 38.6477ZM107.759 34.2169L120.536 9.06653C116.699 7.09482 112.674 5.41112 108.568 4.0708L99.8864 30.9325C102.589 31.8187 105.237 32.9209 107.764 34.2224L107.759 34.2169ZM66.2237 30.8993C68.9266 30.0242 71.7231 29.3541 74.5306 28.911L70.1872 1.00247C65.9319 1.67263 61.6931 2.68617 57.5974 4.02095L66.2237 30.8993V30.8993ZM91.5795 28.9276L95.9724 1.02462C91.7226 0.348926 87.3847 0 83.0798 0L83.0523 28.2464C85.8984 28.2464 88.7664 28.479 91.5795 28.9276V28.9276Z" fill="black"/>
<path d="M82.9917 139V110.611C80.6201 110.611 78.2542 110.3 75.9661 109.693L68.64 137.119C73.3162 138.365 78.1428 139 82.9917 139ZM97.3433 137.119C102.036 135.866 106.551 134.001 110.749 131.574L96.5417 106.993C94.4986 108.173 92.3052 109.08 90.0227 109.687L97.3433 137.119ZM55.2291 131.569L69.4416 106.993C67.4041 105.813 65.5169 104.36 63.8245 102.674L63.5629 102.417L54.5945 111.858L43.5886 122.585L43.75 122.74C47.1904 126.181 51.0539 129.147 55.2347 131.569H55.2291ZM122.233 122.752H122.239C125.674 119.306 128.641 115.448 131.057 111.274L106.484 97.057C105.304 99.0943 103.851 100.981 102.164 102.668L122.233 122.752ZM34.893 111.212L59.4879 97.0292C58.3077 94.9863 57.4058 92.7931 56.799 90.5053L29.3594 97.8029C30.6064 102.495 32.4713 107.01 34.893 111.212ZM136.613 97.8753C137.86 93.1995 138.494 88.3734 138.5 83.525L110.108 83.5139C110.108 85.8908 109.797 88.2565 109.184 90.5443L136.613 97.8753ZM55.886 83.4805C55.886 81.1037 56.1978 78.7379 56.8157 76.4501L29.3928 69.1024C28.1402 73.7782 27.5 78.6043 27.5 83.4527L55.8916 83.4805H55.886ZM109.19 76.4835L136.624 69.1748C135.371 64.4823 133.506 59.968 131.085 55.7709L106.495 69.9652C107.676 72.0081 108.583 74.2013 109.19 76.4835ZM59.5157 69.9318C60.6792 67.9224 62.1155 66.0576 63.7744 64.3877L63.8468 64.3153L53.6926 54.1622L43.9282 44.0925L43.75 44.2651C40.3208 47.694 37.3591 51.5404 34.9486 55.7041L59.5157 69.9318ZM53.6926 54.1566L53.8096 54.2735L53.6926 54.1566ZM102.181 64.3487L112.235 54.2958L122.495 44.5211L122.239 44.2595C118.81 40.8306 114.952 37.8637 110.782 35.4479L96.5584 60.018C98.5681 61.1814 100.439 62.6176 102.109 64.2764L102.181 64.3487ZM69.4583 60.0014C71.4958 58.8213 73.6892 57.9195 75.9773 57.3072L68.6734 29.8759C63.9749 31.1283 59.4656 32.9875 55.2625 35.4145L69.4583 60.0014ZM90.0394 57.3183L97.3823 29.8926C92.706 28.6401 87.8795 28.0056 83.0306 28L83.0139 56.3887C85.391 56.3887 87.757 56.7005 90.045 57.3128L90.0394 57.3183Z" fill="black"/>
<path fill-rule="evenodd" clip-rule="evenodd" d="M318.032 56V109.094H306.527V67.5052H303.217L284.844 109.094H272.265L295.723 56L295.723 56L306.527 56H318.032ZM248.807 56L272.265 109.094H259.688L241.314 67.5052H238.005V109.094H226.5V67.5052V56V56H238.005L248.807 56L248.807 56ZM449.617 109.094H461.122V56H449.617V109.094ZM350.282 80.2887L355.93 67.5052H361.988L367.636 80.2887H350.282ZM337.557 109.094L345.2 91.7938H372.719L380.363 109.094H392.939L369.484 56L369.483 56L348.436 56L348.435 56V56.0011L324.978 109.094H337.557ZM411.094 67.5052V109.094H399.589V67.5052V56H411.094L426.157 56V56.0008L426.159 56L449.615 109.094H437.038L418.663 67.5052H411.094ZM504.797 67.5052V109.094H493.292V67.5052H467.512V56L493.292 56H504.797L530.577 56V67.5052H504.797ZM536.969 56H548.474V97.589H584.909V109.094L548.474 109.094H536.969V56ZM602.804 87.5327V97.589H643.5V109.094L602.804 109.094H591.299V87.5327V76.0275V67.5052V56H602.804L643.498 56V67.5052H602.804V76.0275H639.929V87.5327H602.804Z" fill="black"/>
</svg>